<?xml version="1.0" encoding="UTF-8" standalone="no"?>
<!DOCTYPE svg PUBLIC "-//W3C//DTD SVG 1.1//EN"
 "http://www.w3.org/Graphics/SVG/1.1/DTD/svg11.dtd">
<!-- Generated by graphviz version 2.49.1 (20210923.0004)
 -->
<!-- Pages: 1 -->
<svg width="899pt" height="190pt"
 viewBox="0.00 0.00 899.16 190.00" xmlns="http://www.w3.org/2000/svg" xmlns:xlink="http://www.w3.org/1999/xlink">
<g id="graph0" class="graph" transform="scale(1 1) rotate(0) translate(4 186)">
<polygon fill="white" stroke="transparent" points="-4,4 -4,-186 895.16,-186 895.16,4 -4,4"/>
<!-- dbo:HotSpring -->
<g id="node1" class="node">
<title>dbo:HotSpring</title>
<ellipse fill="none" stroke="black" cx="64.99" cy="-110" rx="64.99" ry="18"/>
<text text-anchor="middle" x="64.99" y="-106.3" font-family="Times,serif" font-size="14.00">dbo:HotSpring</text>
</g>
<!-- hs:Quality -->
<g id="node2" class="node">
<title>hs:Quality</title>
<ellipse fill="none" stroke="black" cx="349.53" cy="-164" rx="48.99" ry="18"/>
<text text-anchor="middle" x="349.53" y="-160.3" font-family="Times,serif" font-size="14.00">hs:Quality</text>
</g>
<!-- dbo:HotSpring&#45;&gt;hs:Quality -->
<g id="edge1" class="edge">
<title>dbo:HotSpring&#45;&gt;hs:Quality</title>
<path fill="none" stroke="black" d="M114.46,-121.69C125.46,-124.22 137.11,-126.79 147.99,-129 197.32,-139.01 253.84,-148.72 294.27,-155.36"/>
<polygon fill="black" stroke="black" points="293.76,-158.82 304.19,-156.98 294.89,-151.91 293.76,-158.82"/>
<text text-anchor="middle" x="204.99" y="-152.8" font-family="Times,serif" font-size="14.00">prop&#45;ja:泉質</text>
</g>
<!-- schemas:Hotel -->
<g id="node3" class="node">
<title>schemas:Hotel</title>
<ellipse fill="none" stroke="black" cx="349.53" cy="-110" rx="64.19" ry="18"/>
<text text-anchor="middle" x="349.53" y="-106.3" font-family="Times,serif" font-size="14.00">schemas:Hotel</text>
</g>
<!-- dbo:HotSpring&#45;&gt;schemas:Hotel -->
<g id="edge2" class="edge">
<title>dbo:HotSpring&#45;&gt;schemas:Hotel</title>
<path fill="none" stroke="black" d="M130.11,-110C173.16,-110 229.99,-110 274.9,-110"/>
<polygon fill="black" stroke="black" points="275.16,-113.5 285.16,-110 275.16,-106.5 275.16,-113.5"/>
<text text-anchor="middle" x="204.99" y="-113.8" font-family="Times,serif" font-size="14.00">schemas:areaServed</text>
</g>
<!-- dbo:ambassador -->
<g id="node4" class="node">
<title>dbo:ambassador</title>
<ellipse fill="none" stroke="black" cx="349.53" cy="-56" rx="69.59" ry="18"/>
<text text-anchor="middle" x="349.53" y="-52.3" font-family="Times,serif" font-size="14.00">dbo:ambassador</text>
</g>
<!-- dbo:HotSpring&#45;&gt;dbo:ambassador -->
<g id="edge3" class="edge">
<title>dbo:HotSpring&#45;&gt;dbo:ambassador</title>
<path fill="none" stroke="black" d="M114.46,-98.31C125.46,-95.78 137.11,-93.21 147.99,-91 191.71,-82.13 241.07,-73.49 279.88,-67.02"/>
<polygon fill="black" stroke="black" points="280.72,-70.43 290.02,-65.34 279.58,-63.53 280.72,-70.43"/>
<text text-anchor="middle" x="204.99" y="-94.8" font-family="Times,serif" font-size="14.00">dbo:mascot</text>
</g>
<!-- hs:Indication -->
<g id="node5" class="node">
<title>hs:Indication</title>
<ellipse fill="none" stroke="black" cx="782.62" cy="-164" rx="58.49" ry="18"/>
<text text-anchor="middle" x="782.62" y="-160.3" font-family="Times,serif" font-size="14.00">hs:Indication</text>
</g>
<!-- hs:Quality&#45;&gt;hs:Indication -->
<g id="edge4" class="edge">
<title>hs:Quality&#45;&gt;hs:Indication</title>
<path fill="none" stroke="black" d="M398.31,-164C475.07,-164 626.1,-164 713.93,-164"/>
<polygon fill="black" stroke="black" points="714.05,-167.5 724.05,-164 714.05,-160.5 714.05,-167.5"/>
<text text-anchor="middle" x="546.58" y="-167.8" font-family="Times,serif" font-size="14.00">hs:hasIndication</text>
</g>
<!-- schemas:Person -->
<g id="node6" class="node">
<title>schemas:Person</title>
<ellipse fill="none" stroke="black" cx="782.62" cy="-83" rx="68.79" ry="18"/>
<text text-anchor="middle" x="782.62" y="-79.3" font-family="Times,serif" font-size="14.00">schemas:Person</text>
</g>
<!-- dbo:ambassador&#45;&gt;schemas:Person -->
<g id="edge5" class="edge">
<title>dbo:ambassador&#45;&gt;schemas:Person</title>
<path fill="none" stroke="black" d="M404.36,-67.25C415.15,-69.14 426.44,-70.85 437.08,-72 528.24,-81.83 633.7,-83.83 703.68,-83.86"/>
<polygon fill="black" stroke="black" points="703.75,-87.36 713.74,-83.85 703.74,-80.36 703.75,-87.36"/>
<text text-anchor="middle" x="546.58" y="-86.8" font-family="Times,serif" font-size="14.00">http://seiyu&#45;lod.org/ontology/voicedBy</text>
</g>
<!-- dbo:ambassador&#45;&gt;schemas:Person -->
<g id="edge6" class="edge">
<title>dbo:ambassador&#45;&gt;schemas:Person</title>
<path fill="none" stroke="black" d="M418.56,-53.42C424.82,-53.25 431.06,-53.1 437.08,-53 534.39,-51.31 559.41,-41.61 656.08,-53 679.52,-55.76 704.94,-61.33 726.73,-66.93"/>
<polygon fill="black" stroke="black" points="725.9,-70.33 736.46,-69.5 727.68,-63.56 725.9,-70.33"/>
<text text-anchor="middle" x="546.58" y="-56.8" font-family="Times,serif" font-size="14.00">schemas:creator</text>
</g>
<!-- schemas:PerformingGroup -->
<g id="node7" class="node">
<title>schemas:PerformingGroup</title>
<ellipse fill="none" stroke="black" cx="782.62" cy="-18" rx="108.58" ry="18"/>
<text text-anchor="middle" x="782.62" y="-14.3" font-family="Times,serif" font-size="14.00">schemas:PerformingGroup</text>
</g>
<!-- dbo:ambassador&#45;&gt;schemas:PerformingGroup -->
<g id="edge7" class="edge">
<title>dbo:ambassador&#45;&gt;schemas:PerformingGroup</title>
<path fill="none" stroke="black" d="M388.72,-41.06C403.57,-35.94 420.89,-30.79 437.08,-28 513.08,-14.88 599.88,-12.43 667.35,-13.24"/>
<polygon fill="black" stroke="black" points="667.53,-16.75 677.58,-13.39 667.63,-9.75 667.53,-16.75"/>
<text text-anchor="middle" x="546.58" y="-31.8" font-family="Times,serif" font-size="14.00">schemas:member</text>
</g>
</g>
</svg>
