<?xml version="1.0" encoding="UTF-8" standalone="no"?>
<!DOCTYPE svg PUBLIC "-//W3C//DTD SVG 1.1//EN"
 "http://www.w3.org/Graphics/SVG/1.1/DTD/svg11.dtd">
<!-- Generated by graphviz version 2.49.1 (20210923.0004)
 -->
<!-- Pages: 1 -->
<svg width="417pt" height="143pt"
 viewBox="0.00 0.00 417.38 143.00" xmlns="http://www.w3.org/2000/svg" xmlns:xlink="http://www.w3.org/1999/xlink">
<g id="graph0" class="graph" transform="scale(1 1) rotate(0) translate(4 139)">
<polygon fill="white" stroke="transparent" points="-4,4 -4,-139 413.38,-139 413.38,4 -4,4"/>
<!-- skos:Concept -->
<g id="node1" class="node">
<title>skos:Concept</title>
<ellipse fill="none" stroke="black" cx="59.79" cy="-18" rx="59.59" ry="18"/>
<text text-anchor="middle" x="59.79" y="-14.3" font-family="Times,serif" font-size="14.00">skos:Concept</text>
</g>
<!-- skos:Concept&#45;&gt;skos:Concept -->
<g id="edge1" class="edge">
<title>skos:Concept&#45;&gt;skos:Concept</title>
<path fill="none" stroke="black" d="M52.08,-36.15C50.89,-45.54 53.46,-54 59.79,-54 63.65,-54 66.12,-50.86 67.18,-46.28"/>
<polygon fill="black" stroke="black" points="70.69,-46.26 67.51,-36.15 63.69,-46.03 70.69,-46.26"/>
<text text-anchor="middle" x="59.79" y="-57.8" font-family="Times,serif" font-size="14.00">skos:narrower</text>
</g>
<!-- skos:Concept&#45;&gt;skos:Concept -->
<g id="edge2" class="edge">
<title>skos:Concept&#45;&gt;skos:Concept</title>
<path fill="none" stroke="black" d="M47.08,-35.7C40.06,-53 44.29,-72 59.79,-72 72.39,-72 77.55,-59.45 75.27,-45.47"/>
<polygon fill="black" stroke="black" points="78.6,-44.37 72.51,-35.7 71.86,-46.27 78.6,-44.37"/>
<text text-anchor="middle" x="59.79" y="-75.8" font-family="Times,serif" font-size="14.00">skos:broader</text>
</g>
<!-- skos:Concept&#45;&gt;skos:Concept -->
<g id="edge3" class="edge">
<title>skos:Concept&#45;&gt;skos:Concept</title>
<path fill="none" stroke="black" d="M43.82,-35.72C29.22,-60.11 34.54,-90 59.79,-90 81.99,-90 88.79,-66.91 80.2,-44.76"/>
<polygon fill="black" stroke="black" points="83.31,-43.16 75.77,-35.72 77.03,-46.24 83.31,-43.16"/>
<text text-anchor="middle" x="59.79" y="-93.8" font-family="Times,serif" font-size="14.00">skos:related</text>
</g>
<!-- foaf:Organization -->
<g id="node2" class="node">
<title>foaf:Organization</title>
<ellipse fill="none" stroke="black" cx="333.98" cy="-18" rx="75.29" ry="18"/>
<text text-anchor="middle" x="333.98" y="-14.3" font-family="Times,serif" font-size="14.00">foaf:Organization</text>
</g>
<!-- skos:Concept&#45;&gt;foaf:Organization -->
<g id="edge4" class="edge">
<title>skos:Concept&#45;&gt;foaf:Organization</title>
<path fill="none" stroke="black" d="M119.86,-18C157.41,-18 206.64,-18 248.31,-18"/>
<polygon fill="black" stroke="black" points="248.46,-21.5 258.46,-18 248.46,-14.5 248.46,-21.5"/>
<text text-anchor="middle" x="189.09" y="-21.8" font-family="Times,serif" font-size="14.00">foaf:primaryTopic</text>
</g>
</g>
</svg>
