<?xml version="1.0" encoding="UTF-8" standalone="no"?>
<!DOCTYPE svg PUBLIC "-//W3C//DTD SVG 1.1//EN"
 "http://www.w3.org/Graphics/SVG/1.1/DTD/svg11.dtd">
<!-- Generated by graphviz version 2.49.1 (20210923.0004)
 -->
<!-- Pages: 1 -->
<svg width="2614pt" height="866pt"
 viewBox="0.00 0.00 2614.16 866.29" xmlns="http://www.w3.org/2000/svg" xmlns:xlink="http://www.w3.org/1999/xlink">
<g id="graph0" class="graph" transform="scale(1 1) rotate(0) translate(4 862.29)">
<polygon fill="white" stroke="transparent" points="-4,4 -4,-862.29 2610.16,-862.29 2610.16,4 -4,4"/>
<!-- textbook:Textbook -->
<g id="node1" class="node">
<title>textbook:Textbook</title>
<ellipse fill="none" stroke="black" cx="84.53" cy="-447.29" rx="84.56" ry="18"/>
<text text-anchor="middle" x="84.53" y="-443.09" font-family="Times,serif" font-size="14.00">textbook:Textbook</text>
</g>
<!-- bf:Item -->
<g id="node2" class="node">
<title>bf:Item</title>
<ellipse fill="none" stroke="black" cx="464.27" cy="-627.29" rx="39.42" ry="18"/>
<text text-anchor="middle" x="464.27" y="-623.09" font-family="Times,serif" font-size="14.00">bf:Item</text>
</g>
<!-- textbook:Textbook&#45;&gt;bf:Item -->
<g id="edge1" class="edge">
<title>textbook:Textbook&#45;&gt;bf:Item</title>
<path fill="none" stroke="black" d="M92.08,-465.38C104.82,-497.66 136.22,-564.65 187.06,-595.29 258.04,-638.08 358.05,-637.87 416.22,-633.09"/>
<polygon fill="black" stroke="black" points="416.59,-636.57 426.23,-632.19 415.96,-629.6 416.59,-636.57"/>
<text text-anchor="middle" x="251.6" y="-637.49" font-family="Times,serif" font-size="14.00">textbook:item</text>
</g>
<!-- textbook:CurriculumGuideline -->
<g id="node3" class="node">
<title>textbook:CurriculumGuideline</title>
<ellipse fill="none" stroke="black" cx="464.27" cy="-398.29" rx="130.24" ry="18"/>
<text text-anchor="middle" x="464.27" y="-394.09" font-family="Times,serif" font-size="14.00">textbook:CurriculumGuideline</text>
</g>
<!-- textbook:Textbook&#45;&gt;textbook:CurriculumGuideline -->
<g id="edge2" class="edge">
<title>textbook:Textbook&#45;&gt;textbook:CurriculumGuideline</title>
<path fill="none" stroke="black" d="M154.31,-437.06C165.26,-435.49 176.47,-433.92 187.06,-432.49 242.28,-425.05 303.79,-417.37 354.73,-411.18"/>
<polygon fill="black" stroke="black" points="355.26,-414.65 364.77,-409.97 354.42,-407.7 355.26,-414.65"/>
<text text-anchor="middle" x="251.6" y="-437.49" font-family="Times,serif" font-size="14.00">textbook:curriculum</text>
</g>
<!-- textbook:Catalogue -->
<g id="node4" class="node">
<title>textbook:Catalogue</title>
<ellipse fill="none" stroke="black" cx="1998.08" cy="-219.29" rx="86.84" ry="18"/>
<text text-anchor="middle" x="1998.08" y="-215.09" font-family="Times,serif" font-size="14.00">textbook:Catalogue</text>
</g>
<!-- textbook:Textbook&#45;&gt;textbook:Catalogue -->
<g id="edge3" class="edge">
<title>textbook:Textbook&#45;&gt;textbook:Catalogue</title>
<path fill="none" stroke="black" d="M101.66,-429.62C150.62,-378.03 303.87,-231.29 463.27,-231.29 463.27,-231.29 463.27,-231.29 1549.07,-231.29 1671.19,-231.29 1811.96,-226.78 1902.62,-223.29"/>
<polygon fill="black" stroke="black" points="1903.02,-226.78 1912.87,-222.89 1902.74,-219.79 1903.02,-226.78"/>
<text text-anchor="middle" x="986.25" y="-235.49" font-family="Times,serif" font-size="14.00">textbook:catalogue</text>
</g>
<!-- https://w3id.org/jp&#45;textbook/curriculum/Subject -->
<g id="node5" class="node">
<title>https://w3id.org/jp&#45;textbook/curriculum/Subject</title>
<ellipse fill="none" stroke="black" cx="1548.07" cy="-497.29" rx="196.25" ry="18"/>
<text text-anchor="middle" x="1548.07" y="-493.09" font-family="Times,serif" font-size="14.00">https://w3id.org/jp&#45;textbook/curriculum/Subject</text>
</g>
<!-- textbook:Textbook&#45;&gt;https://w3id.org/jp&#45;textbook/curriculum/Subject -->
<g id="edge4" class="edge">
<title>textbook:Textbook&#45;&gt;https://w3id.org/jp&#45;textbook/curriculum/Subject</title>
<path fill="none" stroke="black" d="M149.3,-458.95C161.79,-460.96 174.81,-462.86 187.06,-464.29 252.13,-471.94 268.69,-471.29 334.15,-474.29 727.29,-492.31 825.88,-489.43 1219.39,-495.29 1258.85,-495.88 1300.98,-496.3 1341.45,-496.59"/>
<polygon fill="black" stroke="black" points="1341.67,-500.09 1351.7,-496.67 1341.72,-493.09 1341.67,-500.09"/>
<text text-anchor="middle" x="682.75" y="-493.49" font-family="Times,serif" font-size="14.00">textbook:subject</text>
</g>
<!-- https://w3id.org/jp&#45;textbook/curriculum/SubjectArea -->
<g id="node6" class="node">
<title>https://w3id.org/jp&#45;textbook/curriculum/SubjectArea</title>
<ellipse fill="none" stroke="black" cx="986.25" cy="-454.29" rx="215.27" ry="18"/>
<text text-anchor="middle" x="986.25" y="-450.09" font-family="Times,serif" font-size="14.00">https://w3id.org/jp&#45;textbook/curriculum/SubjectArea</text>
</g>
<!-- textbook:Textbook&#45;&gt;https://w3id.org/jp&#45;textbook/curriculum/SubjectArea -->
<g id="edge5" class="edge">
<title>textbook:Textbook&#45;&gt;https://w3id.org/jp&#45;textbook/curriculum/SubjectArea</title>
<path fill="none" stroke="black" d="M168.91,-449.03C175.05,-449.13 181.15,-449.22 187.06,-449.29 380.61,-451.81 600.58,-453.07 760.52,-453.69"/>
<polygon fill="black" stroke="black" points="760.95,-457.19 770.97,-453.73 760.98,-450.19 760.95,-457.19"/>
<text text-anchor="middle" x="464.27" y="-457.49" font-family="Times,serif" font-size="14.00">textbook:subjectArea</text>
</g>
<!-- textbook:School -->
<g id="node7" class="node">
<title>textbook:School</title>
<ellipse fill="none" stroke="black" cx="2297.91" cy="-360.29" rx="74.18" ry="18"/>
<text text-anchor="middle" x="2297.91" y="-356.09" font-family="Times,serif" font-size="14.00">textbook:School</text>
</g>
<!-- textbook:Textbook&#45;&gt;textbook:School -->
<g id="edge6" class="edge">
<title>textbook:Textbook&#45;&gt;textbook:School</title>
<path fill="none" stroke="black" d="M112.78,-464.26C173.35,-500.32 324.8,-581.29 463.27,-581.29 463.27,-581.29 463.27,-581.29 1277.54,-581.29 1642.69,-581.29 1743.38,-593.87 2094.4,-493.29 2145.4,-478.68 2162.14,-476.48 2201.84,-441.29 2212.91,-431.48 2209.54,-423.92 2219.84,-413.29 2231.24,-401.53 2245.63,-390.81 2258.88,-382.13"/>
<polygon fill="black" stroke="black" points="2260.81,-385.05 2267.38,-376.73 2257.06,-379.14 2260.81,-385.05"/>
<text text-anchor="middle" x="1276.54" y="-585.49" font-family="Times,serif" font-size="14.00">textbook:school</text>
</g>
<!-- textbook:Publisher -->
<g id="node8" class="node">
<title>textbook:Publisher</title>
<ellipse fill="none" stroke="black" cx="1548.07" cy="-185.29" rx="83.99" ry="18"/>
<text text-anchor="middle" x="1548.07" y="-181.09" font-family="Times,serif" font-size="14.00">textbook:Publisher</text>
</g>
<!-- textbook:Textbook&#45;&gt;textbook:Publisher -->
<g id="edge7" class="edge">
<title>textbook:Textbook&#45;&gt;textbook:Publisher</title>
<path fill="none" stroke="black" d="M87.24,-429.21C92.57,-384.26 113.25,-267.49 187.06,-217.29 291.22,-146.45 1166.33,-171.46 1455.06,-181.76"/>
<polygon fill="black" stroke="black" points="1454.96,-185.26 1465.08,-182.12 1455.21,-178.27 1454.96,-185.26"/>
<text text-anchor="middle" x="682.75" y="-175.49" font-family="Times,serif" font-size="14.00">schema:publisher</text>
</g>
<!-- rdfs:Class -->
<g id="node9" class="node">
<title>rdfs:Class</title>
<ellipse fill="none" stroke="black" cx="2556.5" cy="-212.29" rx="49.81" ry="18"/>
<text text-anchor="middle" x="2556.5" y="-208.09" font-family="Times,serif" font-size="14.00">rdfs:Class</text>
</g>
<!-- textbook:Textbook&#45;&gt;rdfs:Class -->
<g id="edge8" class="edge">
<title>textbook:Textbook&#45;&gt;rdfs:Class</title>
<path fill="none" stroke="black" d="M86.72,-429.18C90.92,-380.97 109.32,-248.79 187.06,-183.29 282.78,-102.65 338.1,-128.29 463.27,-128.29 463.27,-128.29 463.27,-128.29 2158.12,-128.29 2288.6,-128.29 2438.08,-172.18 2510.91,-196.51"/>
<polygon fill="black" stroke="black" points="2510.08,-199.92 2520.67,-199.81 2512.32,-193.29 2510.08,-199.92"/>
<text text-anchor="middle" x="1548.07" y="-132.49" font-family="Times,serif" font-size="14.00">rdf:type</text>
</g>
<!-- textbook:CurriculumGuideline&#45;&gt;https://w3id.org/jp&#45;textbook/curriculum/SubjectArea -->
<g id="edge9" class="edge">
<title>textbook:CurriculumGuideline&#45;&gt;https://w3id.org/jp&#45;textbook/curriculum/SubjectArea</title>
<path fill="none" stroke="black" d="M567.38,-409.29C646.12,-417.77 755.97,-429.6 843.27,-439"/>
<polygon fill="black" stroke="black" points="842.95,-442.49 853.27,-440.08 843.7,-435.53 842.95,-442.49"/>
<text text-anchor="middle" x="682.75" y="-432.49" font-family="Times,serif" font-size="14.00">textbook:hasSubjectArea</text>
</g>
<!-- textbook:CurriculumGuideline&#45;&gt;textbook:School -->
<g id="edge10" class="edge">
<title>textbook:CurriculumGuideline&#45;&gt;textbook:School</title>
<path fill="none" stroke="black" d="M525.22,-382.39C621.48,-358.29 816.82,-315.29 985.25,-315.29 985.25,-315.29 985.25,-315.29 1999.08,-315.29 2081.26,-315.29 2174.79,-332.25 2234.76,-345.35"/>
<polygon fill="black" stroke="black" points="2234.3,-348.83 2244.82,-347.58 2235.81,-342 2234.3,-348.83"/>
<text text-anchor="middle" x="1548.07" y="-319.49" font-family="Times,serif" font-size="14.00">textbook:school</text>
</g>
<!-- textbook:CurriculumGuideline&#45;&gt;rdfs:Class -->
<g id="edge11" class="edge">
<title>textbook:CurriculumGuideline&#45;&gt;rdfs:Class</title>
<path fill="none" stroke="black" d="M498.51,-380.78C527.72,-366.13 571.8,-345.84 612.39,-334.29 680.95,-314.79 700.12,-317.66 771.12,-311.29 1404.84,-254.48 1567.35,-308.78 2201.84,-261.29 2329.88,-251.71 2362.41,-250.65 2488.85,-228.29 2494.34,-227.32 2500.06,-226.17 2505.73,-224.94"/>
<polygon fill="black" stroke="black" points="2506.86,-228.27 2515.84,-222.65 2505.31,-221.44 2506.86,-228.27"/>
<text text-anchor="middle" x="1823.1" y="-286.49" font-family="Times,serif" font-size="14.00">rdf:type</text>
</g>
<!-- textbook:Catalogue&#45;&gt;textbook:School -->
<g id="edge12" class="edge">
<title>textbook:Catalogue&#45;&gt;textbook:School</title>
<path fill="none" stroke="black" d="M2058.59,-232.37C2100.25,-242.95 2156.38,-260.12 2201.84,-284.49 2227.49,-298.25 2253.09,-319.17 2271.25,-335.56"/>
<polygon fill="black" stroke="black" points="2269.32,-338.53 2279.05,-342.72 2274.06,-333.38 2269.32,-338.53"/>
<text text-anchor="middle" x="2157.12" y="-289.49" font-family="Times,serif" font-size="14.00">textbook:school</text>
</g>
<!-- textbook:Catalogue&#45;&gt;rdfs:Class -->
<g id="edge13" class="edge">
<title>textbook:Catalogue&#45;&gt;rdfs:Class</title>
<path fill="none" stroke="black" d="M2084.8,-218.22C2199.04,-216.78 2398.2,-214.27 2496.78,-213.03"/>
<polygon fill="black" stroke="black" points="2496.91,-216.53 2506.86,-212.91 2496.82,-209.53 2496.91,-216.53"/>
<text text-anchor="middle" x="2297.91" y="-221.49" font-family="Times,serif" font-size="14.00">rdf:type</text>
</g>
<!-- https://w3id.org/jp&#45;textbook/curriculum/Subject&#45;&gt;textbook:School -->
<g id="edge15" class="edge">
<title>https://w3id.org/jp&#45;textbook/curriculum/Subject&#45;&gt;textbook:School</title>
<path fill="none" stroke="black" d="M1719.59,-488.44C1772.3,-484.94 1830.5,-480.28 1883.75,-474.29 1977.92,-463.7 2001.46,-459.79 2094.4,-441.29 2142.59,-431.71 2156.23,-433.56 2201.84,-415.29 2223.24,-406.72 2245.64,-393.98 2263.32,-382.91"/>
<polygon fill="black" stroke="black" points="2265.55,-385.64 2272.1,-377.31 2261.79,-379.74 2265.55,-385.64"/>
<text text-anchor="middle" x="1998.08" y="-476.49" font-family="Times,serif" font-size="14.00">textbook:school</text>
</g>
<!-- https://w3id.org/jp&#45;textbook/curriculum/Subject&#45;&gt;rdfs:Class -->
<g id="edge16" class="edge">
<title>https://w3id.org/jp&#45;textbook/curriculum/Subject&#45;&gt;rdfs:Class</title>
<path fill="none" stroke="black" d="M1669.66,-511.46C1833.88,-526.41 2135,-538.26 2375.99,-460.29 2430.64,-442.61 2451.67,-441.09 2488.85,-397.29 2528.2,-350.92 2545.06,-279.49 2551.68,-240.34"/>
<polygon fill="black" stroke="black" points="2555.14,-240.85 2553.25,-230.43 2548.23,-239.76 2555.14,-240.85"/>
<text text-anchor="middle" x="2157.12" y="-516.49" font-family="Times,serif" font-size="14.00">rdf:type</text>
</g>
<!-- textbook:SubjectType -->
<g id="node10" class="node">
<title>textbook:SubjectType</title>
<ellipse fill="none" stroke="black" cx="1998.08" cy="-414.29" rx="96.15" ry="18"/>
<text text-anchor="middle" x="1998.08" y="-410.09" font-family="Times,serif" font-size="14.00">textbook:SubjectType</text>
</g>
<!-- https://w3id.org/jp&#45;textbook/curriculum/Subject&#45;&gt;textbook:SubjectType -->
<g id="edge14" class="edge">
<title>https://w3id.org/jp&#45;textbook/curriculum/Subject&#45;&gt;textbook:SubjectType</title>
<path fill="none" stroke="black" d="M1666.35,-482.91C1692.34,-478.39 1719.54,-472.61 1744.44,-465.29 1752.81,-462.84 1754.1,-460.03 1762.44,-457.49 1770.04,-455.18 1852.76,-440.13 1917.85,-428.44"/>
<polygon fill="black" stroke="black" points="1918.5,-431.88 1927.73,-426.67 1917.27,-424.99 1918.5,-431.88"/>
<text text-anchor="middle" x="1823.1" y="-462.49" font-family="Times,serif" font-size="14.00">textbook:subjectType</text>
</g>
<!-- https://w3id.org/jp&#45;textbook/curriculum/SubjectArea&#45;&gt;https://w3id.org/jp&#45;textbook/curriculum/Subject -->
<g id="edge17" class="edge">
<title>https://w3id.org/jp&#45;textbook/curriculum/SubjectArea&#45;&gt;https://w3id.org/jp&#45;textbook/curriculum/Subject</title>
<path fill="none" stroke="black" d="M1155.58,-465.44C1212.19,-469.35 1275.69,-473.91 1333.7,-478.49 1354.42,-480.13 1376.26,-481.95 1397.75,-483.79"/>
<polygon fill="black" stroke="black" points="1397.67,-487.3 1407.93,-484.67 1398.27,-480.32 1397.67,-487.3"/>
<text text-anchor="middle" x="1276.54" y="-483.49" font-family="Times,serif" font-size="14.00">textbook:hasSubject</text>
</g>
<!-- https://w3id.org/jp&#45;textbook/curriculum/SubjectArea&#45;&gt;textbook:School -->
<g id="edge19" class="edge">
<title>https://w3id.org/jp&#45;textbook/curriculum/SubjectArea&#45;&gt;textbook:School</title>
<path fill="none" stroke="black" d="M1049.76,-437.05C1096.17,-425.05 1161.23,-409.88 1219.39,-402.29 1587.65,-354.27 2032.2,-355.46 2213.68,-358.42"/>
<polygon fill="black" stroke="black" points="2213.63,-361.92 2223.69,-358.59 2213.75,-354.92 2213.63,-361.92"/>
<text text-anchor="middle" x="1823.1" y="-366.49" font-family="Times,serif" font-size="14.00">textbook:school</text>
</g>
<!-- https://w3id.org/jp&#45;textbook/curriculum/SubjectArea&#45;&gt;rdfs:Class -->
<g id="edge20" class="edge">
<title>https://w3id.org/jp&#45;textbook/curriculum/SubjectArea&#45;&gt;rdfs:Class</title>
<path fill="none" stroke="black" d="M1055.9,-471.33C1128.75,-488.5 1247.52,-513.9 1351.7,-524.29 1727.69,-561.81 1826.38,-575.86 2201.84,-533.29 2335.07,-518.19 2401.64,-542.15 2488.85,-440.29 2538.99,-381.73 2551.44,-287.12 2554.51,-240.33"/>
<polygon fill="black" stroke="black" points="2558.01,-240.49 2555.07,-230.31 2551.02,-240.1 2558.01,-240.49"/>
<text text-anchor="middle" x="1998.08" y="-562.49" font-family="Times,serif" font-size="14.00">rdf:type</text>
</g>
<!-- https://w3id.org/jp&#45;textbook/curriculum/SubjectArea&#45;&gt;textbook:SubjectType -->
<g id="edge18" class="edge">
<title>https://w3id.org/jp&#45;textbook/curriculum/SubjectArea&#45;&gt;textbook:SubjectType</title>
<path fill="none" stroke="black" d="M1181.06,-446.62C1393.53,-438.2 1726.43,-425.01 1893.75,-418.39"/>
<polygon fill="black" stroke="black" points="1893.94,-421.88 1903.79,-417.99 1893.66,-414.89 1893.94,-421.88"/>
<text text-anchor="middle" x="1548.07" y="-444.49" font-family="Times,serif" font-size="14.00">textbook:subjectType</text>
</g>
<!-- textbook:School&#45;&gt;rdfs:Class -->
<g id="edge24" class="edge">
<title>textbook:School&#45;&gt;rdfs:Class</title>
<path fill="none" stroke="black" d="M2352.68,-347.92C2392.71,-336.95 2447.37,-318.13 2488.85,-289.29 2508.63,-275.54 2526.23,-254.62 2538.38,-238.05"/>
<polygon fill="black" stroke="black" points="2541.27,-240.02 2544.21,-229.84 2535.56,-235.97 2541.27,-240.02"/>
<text text-anchor="middle" x="2441.42" y="-339.49" font-family="Times,serif" font-size="14.00">rdf:type</text>
</g>
<!-- textbook:Publisher&#45;&gt;textbook:Catalogue -->
<g id="edge25" class="edge">
<title>textbook:Publisher&#45;&gt;textbook:Catalogue</title>
<path fill="none" stroke="black" d="M1632.14,-186.32C1699.99,-187.82 1798.29,-191.5 1883.75,-200.49 1896.55,-201.84 1910.1,-203.7 1923.21,-205.74"/>
<polygon fill="black" stroke="black" points="1922.7,-209.2 1933.13,-207.32 1923.81,-202.29 1922.7,-209.2"/>
<text text-anchor="middle" x="1823.1" y="-205.49" font-family="Times,serif" font-size="14.00">textbook:catalogue</text>
</g>
<!-- textbook:Publisher&#45;&gt;rdfs:Class -->
<g id="edge26" class="edge">
<title>textbook:Publisher&#45;&gt;rdfs:Class</title>
<path fill="none" stroke="black" d="M1632.29,-185.38C1700,-185.55 1798.05,-186.02 1883.75,-187.29 2152.83,-191.29 2220.01,-197.25 2488.85,-209.29 2491.52,-209.41 2494.25,-209.54 2497.02,-209.66"/>
<polygon fill="black" stroke="black" points="2496.93,-213.16 2507.08,-210.11 2497.25,-206.17 2496.93,-213.16"/>
<text text-anchor="middle" x="2157.12" y="-200.49" font-family="Times,serif" font-size="14.00">rdf:type</text>
</g>
<!-- textbook:SubjectType&#45;&gt;textbook:CurriculumGuideline -->
<g id="edge21" class="edge">
<title>textbook:SubjectType&#45;&gt;textbook:CurriculumGuideline</title>
<path fill="none" stroke="black" d="M1901.63,-413.3C1640.17,-410.57 911.55,-402.96 604.52,-399.75"/>
<polygon fill="black" stroke="black" points="604.25,-396.25 594.22,-399.64 604.18,-403.25 604.25,-396.25"/>
<text text-anchor="middle" x="1276.54" y="-411.49" font-family="Times,serif" font-size="14.00">textbook:curriculum</text>
</g>
<!-- textbook:SubjectType&#45;&gt;textbook:School -->
<g id="edge22" class="edge">
<title>textbook:SubjectType&#45;&gt;textbook:School</title>
<path fill="none" stroke="black" d="M2067.78,-401.84C2115.74,-393.14 2179.51,-381.58 2227.6,-372.86"/>
<polygon fill="black" stroke="black" points="2228.4,-376.27 2237.61,-371.05 2227.15,-369.39 2228.4,-376.27"/>
<text text-anchor="middle" x="2157.12" y="-398.49" font-family="Times,serif" font-size="14.00">textbook:school</text>
</g>
<!-- textbook:SubjectType&#45;&gt;rdfs:Class -->
<g id="edge23" class="edge">
<title>textbook:SubjectType&#45;&gt;rdfs:Class</title>
<path fill="none" stroke="black" d="M2064.98,-427.27C2168.2,-443.53 2368.62,-458.11 2488.85,-356.29 2524.51,-326.09 2542.18,-272.68 2550.04,-240.09"/>
<polygon fill="black" stroke="black" points="2553.46,-240.82 2552.26,-230.29 2546.63,-239.27 2553.46,-240.82"/>
<text text-anchor="middle" x="2297.91" y="-443.49" font-family="Times,serif" font-size="14.00">rdf:type</text>
</g>
<!-- rdf:Property -->
<g id="node11" class="node">
<title>rdf:Property</title>
<ellipse fill="none" stroke="black" cx="2297.91" cy="-79.29" rx="58.46" ry="18"/>
<text text-anchor="middle" x="2297.91" y="-75.09" font-family="Times,serif" font-size="14.00">rdf:Property</text>
</g>
<!-- rdf:Property&#45;&gt;rdfs:Class -->
<g id="edge27" class="edge">
<title>rdf:Property&#45;&gt;rdfs:Class</title>
<path fill="none" stroke="black" d="M2331.43,-64.48C2371.79,-48.53 2441.13,-29.33 2488.85,-60.49 2530.78,-87.88 2546.5,-148.16 2552.27,-183.98"/>
<polygon fill="black" stroke="black" points="2548.86,-184.85 2553.76,-194.24 2555.79,-183.84 2548.86,-184.85"/>
<text text-anchor="middle" x="2441.42" y="-65.49" font-family="Times,serif" font-size="14.00">rdfs:domain</text>
</g>
<!-- rdf:Property&#45;&gt;rdfs:Class -->
<g id="edge28" class="edge">
<title>rdf:Property&#45;&gt;rdfs:Class</title>
<path fill="none" stroke="black" d="M2356.52,-80.17C2404.25,-81.89 2467.58,-86.8 2488.85,-100.49 2519.04,-119.94 2537.43,-158.32 2547.04,-184.64"/>
<polygon fill="black" stroke="black" points="2543.84,-186.09 2550.41,-194.41 2550.46,-183.81 2543.84,-186.09"/>
<text text-anchor="middle" x="2441.42" y="-105.49" font-family="Times,serif" font-size="14.00">rdfs:range</text>
</g>
<!-- shacl:NodeShape -->
<g id="node12" class="node">
<title>shacl:NodeShape</title>
<ellipse fill="none" stroke="black" cx="2297.91" cy="-19.29" rx="78.15" ry="18"/>
<text text-anchor="middle" x="2297.91" y="-15.09" font-family="Times,serif" font-size="14.00">shacl:NodeShape</text>
</g>
<!-- shacl:NodeShape&#45;&gt;rdfs:Class -->
<g id="edge29" class="edge">
<title>shacl:NodeShape&#45;&gt;rdfs:Class</title>
<path fill="none" stroke="black" d="M2349.86,-5.78C2391.23,2.02 2449.04,5.33 2488.85,-23.49 2540.36,-60.8 2552.29,-141.24 2554.9,-184.09"/>
<polygon fill="black" stroke="black" points="2551.41,-184.3 2555.38,-194.12 2558.4,-183.97 2551.41,-184.3"/>
<text text-anchor="middle" x="2441.42" y="-28.49" font-family="Times,serif" font-size="14.00">shacl:targetClass</text>
</g>
<!-- void:Dataset -->
<g id="node13" class="node">
<title>void:Dataset</title>
<ellipse fill="none" stroke="black" cx="84.53" cy="-704.29" rx="59.69" ry="18"/>
<text text-anchor="middle" x="84.53" y="-700.09" font-family="Times,serif" font-size="14.00">void:Dataset</text>
</g>
<!-- void:Dataset&#45;&gt;void:Dataset -->
<g id="edge30" class="edge">
<title>void:Dataset&#45;&gt;void:Dataset</title>
<path fill="none" stroke="black" d="M77.02,-722.45C75.87,-731.83 78.37,-740.29 84.53,-740.29 88.28,-740.29 90.68,-737.15 91.72,-732.57"/>
<polygon fill="black" stroke="black" points="95.22,-732.55 92.04,-722.45 88.22,-732.33 95.22,-732.55"/>
<text text-anchor="middle" x="84.53" y="-744.49" font-family="Times,serif" font-size="14.00">void:subset</text>
</g>
<!-- void:Dataset&#45;&gt;void:Dataset -->
<g id="edge31" class="edge">
<title>void:Dataset&#45;&gt;void:Dataset</title>
<path fill="none" stroke="black" d="M72.16,-721.99C65.33,-739.29 69.45,-758.29 84.53,-758.29 96.78,-758.29 101.8,-745.75 99.58,-731.77"/>
<polygon fill="black" stroke="black" points="102.92,-730.71 96.9,-721.99 96.17,-732.56 102.92,-730.71"/>
<text text-anchor="middle" x="84.53" y="-762.49" font-family="Times,serif" font-size="14.00">pav:hasVersion</text>
</g>
<!-- void:Dataset&#45;&gt;void:Dataset -->
<g id="edge32" class="edge">
<title>void:Dataset&#45;&gt;void:Dataset</title>
<path fill="none" stroke="black" d="M68.99,-722.01C54.79,-746.41 59.97,-776.29 84.53,-776.29 106.11,-776.29 112.73,-753.21 104.38,-731.05"/>
<polygon fill="black" stroke="black" points="107.53,-729.53 100.07,-722.01 101.21,-732.54 107.53,-729.53"/>
<text text-anchor="middle" x="84.53" y="-780.49" font-family="Times,serif" font-size="14.00">pav:previousVersion</text>
</g>
<!-- void:Dataset&#45;&gt;void:Dataset -->
<g id="edge33" class="edge">
<title>void:Dataset&#45;&gt;void:Dataset</title>
<path fill="none" stroke="black" d="M67.13,-721.52C44.2,-752.76 50,-794.29 84.53,-794.29 115.96,-794.29 123.58,-759.89 107.41,-730.15"/>
<polygon fill="black" stroke="black" points="110.25,-728.09 101.93,-721.52 104.34,-731.84 110.25,-728.09"/>
<text text-anchor="middle" x="84.53" y="-798.49" font-family="Times,serif" font-size="14.00">pav:hasCurrentVersion</text>
</g>
<!-- foaf:Project -->
<g id="node14" class="node">
<title>foaf:Project</title>
<ellipse fill="none" stroke="black" cx="464.27" cy="-735.29" rx="56.73" ry="18"/>
<text text-anchor="middle" x="464.27" y="-731.09" font-family="Times,serif" font-size="14.00">foaf:Project</text>
</g>
<!-- void:Dataset&#45;&gt;foaf:Project -->
<g id="edge34" class="edge">
<title>void:Dataset&#45;&gt;foaf:Project</title>
<path fill="none" stroke="black" d="M142.49,-708.97C211.34,-714.62 326.91,-724.1 398.92,-730.01"/>
<polygon fill="black" stroke="black" points="398.96,-733.53 409.22,-730.86 399.54,-726.55 398.96,-733.53"/>
<text text-anchor="middle" x="251.6" y="-727.49" font-family="Times,serif" font-size="14.00">dcterms:publisher</text>
</g>
<!-- prov:Revision -->
<g id="node15" class="node">
<title>prov:Revision</title>
<ellipse fill="none" stroke="black" cx="464.27" cy="-681.29" rx="65.51" ry="18"/>
<text text-anchor="middle" x="464.27" y="-677.09" font-family="Times,serif" font-size="14.00">prov:Revision</text>
</g>
<!-- void:Dataset&#45;&gt;prov:Revision -->
<g id="edge35" class="edge">
<title>void:Dataset&#45;&gt;prov:Revision</title>
<path fill="none" stroke="black" d="M137.04,-695.61C153.03,-693.23 170.73,-690.92 187.06,-689.49 254.99,-683.55 332.65,-681.68 388.28,-681.19"/>
<polygon fill="black" stroke="black" points="388.43,-684.69 398.41,-681.12 388.38,-677.69 388.43,-684.69"/>
<text text-anchor="middle" x="251.6" y="-694.49" font-family="Times,serif" font-size="14.00">prov:qualifiedRevision</text>
</g>
<!-- foaf:Person -->
<g id="node16" class="node">
<title>foaf:Person</title>
<ellipse fill="none" stroke="black" cx="986.25" cy="-735.29" rx="55.59" ry="18"/>
<text text-anchor="middle" x="986.25" y="-731.09" font-family="Times,serif" font-size="14.00">foaf:Person</text>
</g>
<!-- foaf:Project&#45;&gt;foaf:Person -->
<g id="edge36" class="edge">
<title>foaf:Project&#45;&gt;foaf:Person</title>
<path fill="none" stroke="black" d="M520.91,-735.29C617.8,-735.29 816.96,-735.29 920.12,-735.29"/>
<polygon fill="black" stroke="black" points="920.4,-738.79 930.4,-735.29 920.4,-731.79 920.4,-738.79"/>
<text text-anchor="middle" x="682.75" y="-739.49" font-family="Times,serif" font-size="14.00">foaf:member</text>
</g>
</g>
</svg>
